<?xml version="1.0" encoding="iso-8859-1"?>
<!-- Generator: Adobe Illustrator 19.0.0, SVG Export Plug-In . SVG Version: 6.00 Build 0)  -->
<svg xmlns="http://www.w3.org/2000/svg" xmlns:xlink="http://www.w3.org/1999/xlink" version="1.1" id="Capa_1" x="0px" y="0px" viewBox="0 0 512 512" style="enable-background:new 0 0 512 512;" xml:space="preserve" width="60px" height="60px">
<g>
	<g>
		<path d="M486.4,379.733h-9.473c-0.207-1.026-0.393-2.055-0.673-3.058c16.991-13.58,26.98-34.076,27.209-55.826    c1.325-7.758,3.467-44.917-52.754-125.233c-3.912-5.55-8.026-10.791-12.209-15.846c5.111-7.158,7.861-15.733,7.867-24.529    c-0.056-1.977-0.248-3.948-0.577-5.898l18.46-18.46c11.894,8.876,28.5,7.684,39.004-2.8c11.661-11.663,11.661-30.57,0-42.233    c-5.758-5.546-13.419-8.679-21.413-8.758c0.158-16.496-13.086-29.996-29.581-30.155c-16.496-0.158-29.996,13.086-30.155,29.581    c-0.063,6.542,2.024,12.924,5.94,18.165l-18.482,18.482c-13.289-1.887-26.692,2.579-36.193,12.06    c-0.523,0.508-1.001,1.06-1.429,1.65l-0.374,0.384c-40.795-17.977-84.326-15.498-112.359,6.874    c-13.492,10.767-27.688,23.625-40.213,34.967c-11.042,9.992-23.204,21.008-30.708,26.533    c-28.627-40.364-84.556-49.879-124.921-21.252c-23.69,16.801-37.766,44.042-37.767,73.085c0.016,13.271,2.937,26.378,8.558,38.4    c-5.621,12.022-8.542,25.129-8.558,38.4c-0.004,16.145,4.367,31.989,12.647,45.848c-1.431,3.068-2.486,6.297-3.143,9.618H25.6    c-6.757-0.053-13.247,2.635-17.987,7.45c-4.901,4.763-7.65,11.317-7.612,18.15c0.038,32.974,26.759,59.695,59.733,59.733h392.533    c32.973-0.04,59.693-26.76,59.733-59.733C511.985,391.2,500.532,379.748,486.4,379.733z M446.234,100.633    c3.332-3.331,3.333-8.732,0.002-12.064c-0.374-0.374-0.782-0.712-1.218-1.011c-0.751-0.504-1.454-1.076-2.1-1.708    c-4.986-5.012-4.965-13.116,0.047-18.102c5.012-4.986,13.116-4.965,18.102,0.047c4.798,4.823,4.985,12.556,0.426,17.605    c-3.149,3.503-2.862,8.896,0.641,12.046c3.244,2.917,8.167,2.915,11.409-0.004c5.25-4.746,13.353-4.338,18.099,0.911    c4.746,5.25,4.338,13.353-0.911,18.099c-5.06,4.575-12.817,4.383-17.646-0.435c-0.626-0.641-1.193-1.339-1.692-2.083    c-2.643-3.895-7.944-4.91-11.839-2.267c-0.448,0.304-0.866,0.65-1.249,1.034l-19.017,19.013c-1.583-2.39-3.4-4.617-5.425-6.647    c-2.026-2.026-4.252-3.843-6.643-5.423L446.234,100.633z M383.313,139.766c0.201-0.218,0.39-0.446,0.567-0.684    c0.609-0.615,1.181-1.266,1.712-1.95c10.001-9.994,26.21-9.988,36.204,0.013c9.994,10.001,9.988,26.21-0.013,36.204    c-0.888,0.871-1.825,1.692-2.804,2.458c-17.562,16.38-30.521,37.08-37.583,60.033c-0.243,0.811-0.362,1.654-0.354,2.5    c0,0.283,0.012,0.567,0.037,0.858c3.646,37.526-23.82,70.903-61.347,74.549s-70.903-23.82-74.549-61.347    c-3.646-37.526,23.82-70.903,61.347-74.549c2.188-0.213,4.384-0.319,6.582-0.32c2.196,0,4.408,0.108,6.621,0.317    c0.288,0.025,0.592-0.008,0.862,0.042c0.841-0.026,1.676-0.144,2.492-0.35C346.128,170.448,366.898,157.421,383.313,139.766z     M80.828,183.574c34.606-18.591,77.723-6.278,97.293,27.783c2.039,3.558,6.326,5.155,10.196,3.8    c8.096-2.808,20.646-13.958,42.133-33.408c12.342-11.175,26.329-23.842,39.408-34.283c16.71-13.349,49.018-22.241,88.083-7.36    c-11.344,9.188-24.301,16.18-38.208,20.619c-46.984-3.641-88.023,31.496-91.664,78.48c-3.641,46.984,31.496,88.023,78.48,91.664    c46.984,3.641,88.023-31.496,91.664-78.48c0.34-4.39,0.34-8.799,0-13.189c5.693-17.67,15.413-33.776,28.395-47.047    c3.465,4.263,6.877,8.653,10.134,13.271c55.596,79.425,49.929,112.392,49.913,112.508l0,0c-0.168,0.676-0.253,1.37-0.254,2.067    c0.045,15.697-6.58,30.674-18.225,41.2c-14.947-18.215-41.83-20.864-60.045-5.917c-7.575,6.216-12.779,14.85-14.739,24.451h-35.85    c-4.715-23.09-27.256-37.986-50.346-33.271c-16.755,3.422-29.849,16.516-33.271,33.271h-35.85    c-4.081-19.851-21.542-34.107-41.808-34.133c-2.468-0.008-4.932,0.204-7.362,0.633c-17.284,3.011-30.957,16.306-34.45,33.5    h-35.846c-4.711-23.087-27.246-37.983-50.333-33.272c-6.843,1.396-13.238,4.451-18.625,8.897c-9.84-20.859-9.253-45.14,1.583-65.5    c1.321-2.497,1.321-5.486,0-7.983C32.261,246.557,45.511,202.547,80.828,183.574z M459.162,379.733h-47.989    c4.666-13.297,19.228-20.293,32.525-15.627c5.119,1.796,9.532,5.177,12.599,9.652l1.157,1.847    C458.15,376.925,458.722,378.307,459.162,379.733z M339.761,379.733h-48.055c4.628-13.27,19.138-20.276,32.408-15.647    C331.443,366.642,337.205,372.403,339.761,379.733z M220.295,379.733h-48.141c3.081-8.729,10.635-15.114,19.755-16.7    c1.439-0.252,2.898-0.374,4.358-0.367C207.08,362.699,216.702,369.534,220.295,379.733z M100.828,379.733H52.745    c0.639-1.84,1.489-3.599,2.534-5.242l0.01-0.026l0.028-0.033c7.567-11.857,23.313-15.334,35.17-7.767    C95.302,369.738,98.944,374.34,100.828,379.733z M452.267,447.999H59.734c-23.553-0.028-42.639-19.114-42.667-42.667    c-0.006-2.301,0.939-4.503,2.612-6.083c1.56-1.586,3.697-2.47,5.921-2.45h460.8c4.711,0.005,8.529,3.823,8.533,8.533    C494.892,428.88,475.814,447.958,452.267,447.999z" fill="#FFFFFF"/>
	</g>
</g>
<g>
</g>
<g>
</g>
<g>
</g>
<g>
</g>
<g>
</g>
<g>
</g>
<g>
</g>
<g>
</g>
<g>
</g>
<g>
</g>
<g>
</g>
<g>
</g>
<g>
</g>
<g>
</g>
<g>
</g>
</svg>
